<svg xmlns="http://www.w3.org/2000/svg" xmlns:xlink="http://www.w3.org/1999/xlink" xmlns:inkscape="http://www.inkscape.org/namespaces/inkscape" version="1.1" width="314" height="155" viewBox="0 0 314 155">
<defs>
<path id="font_1_1" d="M.69999697-2.3488923C.69999697-2.3448945 .69799807-2.3428956 .69599917-2.3399049 .6589966-2.3029023 .59199526-2.2359009 .5249939-2.1278992 .3639984-1.8699188 .29100038-1.5449219 .29100038-1.1599274 .29100038-.89094546 .32699586-.5439453 .49198915-.24595642 .57099917-.10395813 .6529999-.021957398 .69699099 .022033692 .69999697 .025024414 .69999697 .027038575 .69999697 .030029297 .69999697 .040039064 .69299319 .040039064 .67900088 .040039064 .6649933 .040039064 .6629944 .040039064 .647995 .025024414 .31298829-.279953 .20799256-.73794558 .20799256-1.1589356 .20799256-1.5519257 .2979889-1.9479065 .5519867-2.2469025 .57199099-2.2698975 .6100006-2.3108979 .651001-2.3468934 .6629944-2.358902 .6649933-2.358902 .67900088-2.358902 .69299319-2.358902 .69999697-2.358902 .69999697-2.3488923Z"/>
<path id="font_2_6" d="M.33399964 .30233766C.33999635 .32835389 .36299134 .42037965 .43299867 .42037965 .43798829 .42037965 .46199037 .42037965 .48298646 .40734864 .45498658 .402359 .43499757 .37734986 .43499757 .35334779 .43499757 .33735658 .44599916 .31835938 .47299195 .31835938 .49499513 .31835938 .5269928 .3363495 .5269928 .37635804 .5269928 .42837525 .46798707 .4423828 .43399049 .4423828 .37599183 .4423828 .34098817 .38935853 .32899476 .36634828 .3039856 .43237306 .25 .4423828 .22099304 .4423828 .116989139 .4423828 .05999756 .3133545 .05999756 .28834535 .05999756 .27833558 .069992069 .27833558 .07199097 .27833558 .07998657 .27833558 .08299255 .28033448 .084991458 .28933717 .11898804 .39535523 .18499756 .42037965 .21899414 .42037965 .23799134 .42037965 .272995 .4113617 .272995 .35334779 .272995 .32235719 .2559967 .25532533 .21899414 .11528015 .20298767 .053268434 .16799927 .011245728 .12399292 .011245728 .117996219 .011245728 .09498596 .011245728 .07398987 .024276734 .09899902 .029266358 .12098694 .05027771 .12098694 .07827759 .12098694 .105270389 .09899902 .11328125 .083999637 .11328125 .053985597 .11328125 .0289917 .08728027 .0289917 .055267335 .0289917 .009246826 .07899475-.0107421879 .12298584-.0107421879 .18899536-.0107421879 .22499085 .059280397 .22799683 .0652771 .23999024 .028274537 .27598573-.0107421879 .33599855-.0107421879 .43899537-.0107421879 .49598695 .118270877 .49598695 .14328003 .49598695 .1532898 .4869995 .1532898 .48399354 .1532898 .47499085 .1532898 .47299195 .14929199 .47099305 .14228821 .43798829 .03527832 .36999513 .011245728 .33799745 .011245728 .29899598 .011245728 .2829895 .043273927 .2829895 .07727051 .2829895 .09927368 .2889862 .121276859 .2999878 .16529846L.33399964 .30233766Z"/>
<path id="font_2_7" d="M.48599244 .38136292C.48999024 .39537049 .48999024 .39736939 .48999024 .40437318 .48999024 .42237855 .47599793 .43138124 .46099855 .43138124 .45098878 .43138124 .43499757 .42536927 .42599488 .41036988 .42399598 .405365 .41600038 .37435914 .4119873 .35635377 .40499879 .33035279 .397995 .30334474 .3919983 .27633668L.34700013 .09628296C.34298707 .08126831 .2999878 .011245728 .23399353 .011245728 .18299866 .011245728 .17199707 .055267335 .17199707 .0922699 .17199707 .1382904 .18899536 .20030213 .22299195 .28833009 .23899842 .3293457 .24299622 .3403473 .24299622 .36035157 .24299622 .405365 .21099854 .4423828 .16099549 .4423828 .06599426 .4423828 .0289917 .29733277 .0289917 .28833009 .0289917 .27833558 .038986207 .27833558 .040985109 .27833558 .050994874 .27833558 .051986696 .28033448 .056991579 .29634095 .083999637 .3903656 .12399292 .42037965 .1579895 .42037965 .1659851 .42037965 .18299866 .42037965 .18299866 .3883667 .18299866 .36335755 .17298889 .3373413 .1659851 .31834413 .12599182 .21231079 .10798645 .1552887 .10798645 .10827637 .10798645 .019256592 .17098999-.0107421879 .22999573-.0107421879 .2689972-.0107421879 .30299378 .0062561037 .33099366 .03425598 .31799317-.017745972 .30599977-.06674194 .2659912-.11973572 .23999024-.15385437 .20199585-.18309021 .1559906-.18309021 .14199829-.18309021 .09700012-.18005371 .07998657-.14074707 .09599304-.14074707 .10899353-.14074707 .12298584-.1287384 .1329956-.11973572 .14299011-.10673523 .14299011-.08773804 .14299011-.056747438 .115997318-.052734376 .10598755-.052734376 .08299255-.052734376 .049987794-.068740848 .049987794-.11773682 .049987794-.16796875 .09399414-.20507813 .1559906-.20507813 .25898744-.20507813 .3619995-.11373901 .3899994-.00074768069L.48599244 .38136292Z"/>
<path id="font_1_2" d="M.5269928-1.1599274C.5269928-.76693728 .43699647-.37095643 .18299866-.07196045 .16299439-.048965455 .125-.007965088 .083999637 .028030396 .07199097 .040039064 .069992069 .040039064 .055999757 .040039064 .04399109 .040039064 .034988405 .040039064 .034988405 .030029297 .034988405 .026031495 .038986207 .022033692 .040985109 .02003479 .07598877-.015960694 .14299011-.082962039 .20999146-.19096375 .37098695-.4489441 .44400025-.77394106 .44400025-1.1589356 .44400025-1.4279175 .4079895-1.7749176 .24299622-2.0729066 .1639862-2.2149049 .08099365-2.2978974 .038986207-2.3399049 .036987306-2.3428956 .034988405-2.3459016 .034988405-2.3488923 .034988405-2.358902 .04399109-2.358902 .055999757-2.358902 .069992069-2.358902 .07199097-2.358902 .08699036-2.3439027 .42199708-2.03891 .5269928-1.5809174 .5269928-1.1599274Z"/>
<path id="font_3_3" d="M.68699648 .32714845C.70199587 .32714845 .72099307 .32714845 .72099307 .34713746 .72099307 .36714173 .70199587 .36714173 .6879883 .36714173H.08898926C.07499695 .36714173 .055999757 .36714173 .055999757 .34713746 .055999757 .32714845 .07499695 .32714845 .08999634 .32714845H.68699648M.6879883 .13284302C.70199587 .13284302 .72099307 .13284302 .72099307 .15284729 .72099307 .17285156 .70199587 .17285156 .68699648 .17285156H.08999634C.07499695 .17285156 .055999757 .17285156 .055999757 .15284729 .055999757 .13284302 .07499695 .13284302 .08898926 .13284302H.6879883Z"/>
<path id="font_2_5" d="M.36698915 .3996582H.45298768C.47299195 .3996582 .48298646 .3996582 .48298646 .41966249 .48298646 .43066407 .47299195 .43066407 .45599366 .43066407H.37298585L.3939972 .5449524C.397995 .5660095 .4119873 .6370239 .41799928 .6490326 .4269867 .66804507 .44400025 .68307498 .46499635 .68307498 .46899415 .68307498 .49499513 .68307498 .5139923 .66503909 .46998597 .661026 .45999146 .6260376 .45999146 .6110382 .45999146 .58802798 .47799684 .57603457 .49699403 .57603457 .522995 .57603457 .5519867 .5980377 .5519867 .6360321 .5519867 .6820679 .5059967 .7050781 .46499635 .7050781 .43099977 .7050781 .36799623 .68707278 .33799745 .58802798 .33198548 .56700137 .32899476 .5569763 .30499269 .43066407H.23599243C.21699524 .43066407 .20599365 .43066407 .20599365 .4116516 .20599365 .3996582 .21499634 .3996582 .23399353 .3996582H.2999878L.22499085 .0048828127C.20698548-.09207153 .18998719-.18309021 .13798523-.18309021 .13398743-.18309021 .10899353-.18309021 .08999634-.16506958 .13598633-.1620636 .14498902-.12606812 .14498902-.111068729 .14498902-.08807373 .1269989-.07606506 .10798645-.07606506 .08198547-.07606506 .052993776-.09806824 .052993776-.13606262 .052993776-.18109131 .09700012-.20507813 .13798523-.20507813 .19299317-.20507813 .23298645-.14607239 .25099183-.108062747 .2829895-.04508972 .30599977 .07583618 .30699159 .082839969L.36698915 .3996582Z"/>
<path id="font_3_1" d="M.33099366-.2400055C.33099366-.23701477 .33099366-.23500061 .31399537-.21800232 .18899536-.0920105 .15699768 .09700012 .15699768 .25 .15699768 .42399598 .19499207 .59799197 .31799317 .72299197 .33099366 .73498538 .33099366 .7369995 .33099366 .73999026 .33099366 .746994 .32699586 .75 .32099916 .75 .31098939 .75 .22099304 .6819916 .1619873 .5549927 .11099243 .44499208 .09899902 .33399964 .09899902 .25 .09899902 .17199707 .10998535 .050994874 .16499329-.06201172 .22499085-.18501282 .31098939-.25 .32099916-.25 .32699586-.25 .33099366-.24700928 .33099366-.2400055Z"/>
<path id="font_2_1" d="M.45498658 .5001831C.45498658 .56614688 .43699647 .7050781 .33499146 .7050781 .19599915 .7050781 .041992189 .42323304 .041992189 .19425965 .041992189 .100250247 .070999149-.0107421879 .1619873-.0107421879 .30299378-.0107421879 .45498658 .27627564 .45498658 .5001831M.147995 .36328126C.16499329 .42723084 .18499756 .5071869 .22499085 .57814028 .2519989 .6271057 .2889862 .68307498 .33399964 .68307498 .3829956 .68307498 .3889923 .6191101 .3889923 .56214907 .3889923 .5131836 .3809967 .46220399 .35699464 .36328126H.147995M.34799195 .3312683C.33699037 .28527833 .31599427 .2002716 .27799989 .12826538 .24299622 .060256959 .20498657 .011245728 .1619873 .011245728 .1289978 .011245728 .10798645 .040252687 .10798645 .133255 .10798645 .17526245 .11399841 .23326111 .13999939 .3312683H.34799195Z"/>
<path id="font_2_4" d="M.20298767 .0009918213C.20298767 .066986087 .17799378 .10598755 .13899231 .10598755 .10598755 .10598755 .085998538 .08099365 .085998538 .052993776 .085998538 .025985718 .10598755 0 .13899231 0 .15098572 0 .1639862 .0039978029 .17399597 .0129852299 .1769867 .01499939 .17799378 .015991211 .1789856 .015991211 .17999268 .015991211 .18099976 .01499939 .18099976 .0009918213 .18099976-.07316589 .1459961-.13328552 .11299133-.16635132 .101989749-.17736817 .101989749-.17936707 .101989749-.18237305 .101989749-.18936157 .10699463-.19335938 .11199951-.19335938 .12298584-.19335938 .20298767-.116256717 .20298767 .0009918213Z"/>
<path id="font_2_2" d="M.43699647 .67033389C.43699647 .67233279 .43998719 .68333438 .43998719 .6843262 .43998719 .68533328 .43998719 .69433596 .42799378 .69433596 .41799928 .69433596 .4169922 .69132998 .41299439 .67433169L.35499574 .44337464C.19599915 .43836976 .04899597 .30532838 .04899597 .169281 .04899597 .07424927 .11898804-.004776001 .24099732-.011779785 .23298645-.04283142 .22599793-.07489014 .21798706-.10594177 .20599365-.1530304 .19599915-.19108582 .19599915-.1940918 .19599915-.2040863 .20298767-.20507813 .20799256-.20507813 .21299744-.20507813 .21499634-.2040863 .21798706-.20108032 .21998596-.19908142 .22599793-.17506409 .22898865-.16104126L.2669983-.011779785C.42799378-.0067749025 .57299807 .12826538 .57299807 .26231385 .57299807 .3413391 .519989 .43338014 .3809967 .44337464L.43699647 .67033389M.24598694 .010223389C.18598938 .01322937 .11399841 .048233034 .11399841 .14826966 .11399841 .2683258 .19999695 .40837098 .34899903 .42137147L.24598694 .010223389M.375 .42137147C.45098878 .41737367 .5079956 .37135316 .5079956 .2833252 .5079956 .1652832 .42199708 .022232056 .27198792 .010223389L.375 .42137147Z"/>
<path id="font_2_3" d="M.48199464 .66833499C.48298646 .67233279 .4850006 .67832949 .4850006 .68333438 .4850006 .69332888 .47799684 .69433596 .47299195 .69433596 .46299745 .69433596 .46199037 .6923218 .45799256 .67433169L.2919922 .013244629C.21598816 .022247315 .17799378 .059265138 .17799378 .12528992 .17799378 .14529419 .17799378 .17129517 .23199463 .31134034 .23599243 .323349 .24299622 .3403473 .24299622 .36035157 .24299622 .405365 .21099854 .4423828 .16099549 .4423828 .06599426 .4423828 .0289917 .29733277 .0289917 .28833009 .0289917 .27833558 .038986207 .27833558 .040985109 .27833558 .050994874 .27833558 .051986696 .28033448 .056991579 .29634095 .083999637 .39135743 .12399292 .42037965 .1579895 .42037965 .1659851 .42037965 .18299866 .42037965 .18299866 .3883667 .18299866 .36235047 .17298889 .3373413 .1599884 .30233766 .11199951 .17630005 .11199951 .15029907 .11199951 .13328552 .11199951 .038253786 .18998719-.002746582 .28599549-.008743286 .27799989-.044815065 .27799989-.046813966 .2639923-.09992981 .26098634-.110946658 .24099732-.1920929 .24099732-.19508362 .24099732-.1960907 .24099732-.20507813 .25299073-.20507813 .25498963-.20507813 .2599945-.20507813 .2619934-.20108032 .2649994-.19908142 .2709961-.17407227 .27398683-.16003418L.31199647-.0107421879C.34899903-.0107421879 .43699647-.0107421879 .5309906 .09628296 .57199099 .14228821 .59298709 .18630982 .60398867 .2163086 .61299136 .24131775 .6349945 .32833863 .6349945 .37236024 .6349945 .42837525 .60798647 .4423828 .59098818 .4423828 .56599429 .4423828 .54100039 .41636659 .54100039 .3943634 .54100039 .38136292 .5469971 .3753662 .55599978 .36735536 .5669861 .35635377 .59199526 .33035279 .59199526 .28233338 .59199526 .2183075 .5399933 .1362915 .5049896 .10028076 .4169922 .011245728 .35299684 .011245728 .31698609 .011245728L.48199464 .66833499Z"/>
<path id="font_3_2" d="M.2889862 .25C.2889862 .32798768 .27799989 .44898988 .22299195 .56199648 .16299439 .68499758 .07699585 .75 .066986087 .75 .06098938 .75 .056991579 .74598696 .056991579 .73999026 .056991579 .7369995 .056991579 .73498538 .07598877 .71699526 .17399597 .6179962 .23098755 .45899964 .23098755 .25 .23098755 .07899475 .19400025-.09700012 .069992069-.2230072 .056991579-.23500061 .056991579-.23701477 .056991579-.2400055 .056991579-.2460022 .06098938-.25 .066986087-.25 .07699585-.25 .16699219-.18200684 .22599793-.055007936 .2769928 .054992677 .2889862 .16600037 .2889862 .25Z"/>
</defs>
<path transform="matrix(1.00005,0,0,-1.00009,-59.504926,505.8741)" d="M69.99889 369.59413 137.19782 459.1927H153.99755L86.79861 369.59413Z" fill="#cccccc" fill-rule="evenodd"/>
<path transform="matrix(1.00005,0,0,-1.00009,-59.504926,505.8741)" stroke-width=".4" stroke-linecap="butt" stroke-linejoin="round" fill="none" stroke="#000000" d="M69.99889 369.59413 137.19782 459.1927H153.99755L86.79861 369.59413Z"/>
<path transform="matrix(1.00005,0,0,-1.00009,-59.504926,505.8741)" d="M145.59767 464.7926 223.99643 498.39207V487.19227L145.59767 453.5928Z" fill="#cccccc" fill-rule="evenodd"/>
<path transform="matrix(1.00005,0,0,-1.00009,-59.504926,505.8741)" stroke-width=".4" stroke-linecap="butt" stroke-linejoin="round" fill="none" stroke="#000000" d="M145.59767 464.7926 223.99643 498.39207V487.19227L145.59767 453.5928Z"/>
<path transform="matrix(1.00005,0,0,-1.00009,-59.504926,505.8741)" d="M225.33342 501.08494 259.8394 504.0283 291.671 490.3873 291.22529 487.62324 238.70803 496.0922 236.92508 485.0359 289.44236 476.56697 288.9966 473.8029 254.49062 470.8595 222.65901 484.50053Z" fill="#e5e6e5" fill-rule="evenodd"/>
<path transform="matrix(1.00005,0,0,-1.00009,-59.504926,505.8741)" stroke-width=".4" stroke-linecap="butt" stroke-linejoin="round" fill="none" stroke="#000000" d="M225.33342 501.08494 259.8394 504.0283 291.671 490.3873 291.22529 487.62324 238.70803 496.0922 236.92508 485.0359 289.44236 476.56697 288.9966 473.8029 254.49062 470.8595 222.65901 484.50053Z"/>
<path transform="matrix(1.00005,0,0,-1.00009,-59.504926,505.8741)" d="M292.29264 481.77925C292.46708 482.86109 291.7315 483.87947 290.64967 484.0539 289.56788 484.22837 288.54948 483.49278 288.37504 482.41096 288.2006 481.32917 288.93614 480.31077 290.01799 480.1363 291.0998 479.96189 292.1182 480.69743 292.29264 481.77925ZM290.33384 482.09513" fill="#ff0000" fill-rule="evenodd"/>
<path transform="matrix(1.00005,0,0,-1.00009,-59.504926,505.8741)" stroke-width=".4" stroke-linecap="butt" stroke-linejoin="round" fill="none" stroke="#ff0000" d="M292.29264 481.77925C292.46708 482.86109 291.7315 483.87947 290.64967 484.0539 289.56788 484.22837 288.54948 483.49278 288.37504 482.41096 288.2006 481.32917 288.93614 480.31077 290.01799 480.1363 291.0998 479.96189 292.1182 480.69743 292.29264 481.77925ZM290.33384 482.09513"/>
<use data-text="(" xlink:href="#font_1_1" transform="matrix(9.963098,0,0,-9.963496,240.03401,12.17868)" fill="#ff0000"/>
<use data-text="x" xlink:href="#font_2_6" transform="matrix(9.963098,0,0,-9.963496,247.36739,20.149415)" fill="#ff0000"/>
<use data-text="y" xlink:href="#font_2_7" transform="matrix(9.963098,0,0,-9.963496,247.5934,32.10547)" fill="#ff0000"/>
<use data-text=")" xlink:href="#font_1_2" transform="matrix(9.963098,0,0,-9.963496,253.06166,12.17868)" fill="#ff0000"/>
<use data-text="=" xlink:href="#font_3_3" transform="matrix(9.963098,0,0,-9.963496,263.16319,26.22696)" fill="#ff0000"/>
<use data-text="f" xlink:href="#font_2_5" transform="matrix(9.963098,0,0,-9.963496,273.6797,26.22696)" fill="#ff0000"/>
<use data-text="(" xlink:href="#font_3_1" transform="matrix(9.963098,0,0,-9.963496,279.63,26.22696)" fill="#ff0000"/>
<use data-text="&#x03b8;" xlink:href="#font_2_1" transform="matrix(9.963098,0,0,-9.963496,283.5052,26.22696)" fill="#ff0000"/>
<use data-text="," xlink:href="#font_2_4" transform="matrix(9.963098,0,0,-9.963496,288.4469,26.22696)" fill="#ff0000"/>
<use data-text="&#x03d5;" xlink:href="#font_2_2" transform="matrix(9.963098,0,0,-9.963496,292.8705,26.22696)" fill="#ff0000"/>
<use data-text="," xlink:href="#font_2_4" transform="matrix(9.963098,0,0,-9.963496,298.79856,26.22696)" fill="#ff0000"/>
<use data-text="&#x03c8;" xlink:href="#font_2_3" transform="matrix(9.963098,0,0,-9.963496,303.22218,26.22696)" fill="#ff0000"/>
<use data-text=")" xlink:href="#font_3_2" transform="matrix(9.963098,0,0,-9.963496,310.0985,26.22696)" fill="#ff0000"/>
<path transform="matrix(1.00005,0,0,-1.00009,-59.504926,505.8741)" d="M156.79749 459.1927C156.79749 465.37825 151.78324 470.3925 145.59767 470.3925 139.41213 470.3925 134.39788 465.37825 134.39788 459.1927 134.39788 453.00715 139.41213 447.9929 145.59767 447.9929 151.78324 447.9929 156.79749 453.00715 156.79749 459.1927ZM145.59767 459.1927" fill="#ffffff" fill-rule="evenodd"/>
<path transform="matrix(1.00005,0,0,-1.00009,-59.504926,505.8741)" stroke-width=".4" stroke-linecap="butt" stroke-linejoin="round" fill="none" stroke="#000000" d="M156.79749 459.1927C156.79749 465.37825 151.78324 470.3925 145.59767 470.3925 139.41213 470.3925 134.39788 465.37825 134.39788 459.1927 134.39788 453.00715 139.41213 447.9929 145.59767 447.9929 151.78324 447.9929 156.79749 453.00715 156.79749 459.1927ZM145.59767 459.1927"/>
<path transform="matrix(1.00005,0,0,-1.00009,-59.504926,505.8741)" d="M235.19625 492.79216C235.19625 498.97773 230.18199 503.99198 223.99643 503.99198 217.81087 503.99198 212.79663 498.97773 212.79663 492.79216 212.79663 486.6066 217.81087 481.59236 223.99643 481.59236 230.18199 481.59236 235.19625 486.6066 235.19625 492.79216ZM223.99643 492.79216" fill="#ffffff" fill-rule="evenodd"/>
<path transform="matrix(1.00005,0,0,-1.00009,-59.504926,505.8741)" stroke-width=".4" stroke-linecap="butt" stroke-linejoin="round" fill="none" stroke="#000000" d="M235.19625 492.79216C235.19625 498.97773 230.18199 503.99198 223.99643 503.99198 217.81087 503.99198 212.79663 498.97773 212.79663 492.79216 212.79663 486.6066 217.81087 481.59236 223.99643 481.59236 230.18199 481.59236 235.19625 486.6066 235.19625 492.79216ZM223.99643 492.79216"/>
<path transform="matrix(1.00005,0,0,-1.00009,-59.504926,505.8741)" d="M95.19847 369.59413C95.19847 378.87248 87.6771 386.39384 78.39874 386.39384 69.12039 386.39384 61.59903 378.87248 61.59903 369.59413 61.59903 360.31578 69.12039 352.7944 78.39874 352.7944 87.6771 352.7944 95.19847 360.31578 95.19847 369.59413ZM78.39874 369.59413" fill="#ffffff" fill-rule="evenodd"/>
<path transform="matrix(1.00005,0,0,-1.00009,-59.504926,505.8741)" stroke-width=".4" stroke-linecap="butt" stroke-linejoin="round" fill="none" stroke="#000000" d="M95.19847 369.59413C95.19847 378.87248 87.6771 386.39384 78.39874 386.39384 69.12039 386.39384 61.59903 378.87248 61.59903 369.59413 61.59903 360.31578 69.12039 352.7944 78.39874 352.7944 87.6771 352.7944 95.19847 360.31578 95.19847 369.59413ZM78.39874 369.59413"/>
<path transform="matrix(1.00005,0,0,-1.00009,-59.504926,505.8741)" d="M81.19868 369.59413C81.19868 371.1405 79.94511 372.39408 78.39874 372.39408 76.85237 372.39408 75.5988 371.1405 75.5988 369.59413 75.5988 368.04774 76.85237 366.79417 78.39874 366.79417 79.94511 366.79417 81.19868 368.04774 81.19868 369.59413ZM148.39762 459.1927C148.39762 460.73908 147.14405 461.9926 145.59767 461.9926 144.0513 461.9926 142.79775 460.73908 142.79775 459.1927 142.79775 457.64634 144.0513 456.39277 145.59767 456.39277 147.14405 456.39277 148.39762 457.64634 148.39762 459.1927ZM226.79637 492.79216C226.79637 494.33854 225.5428 495.5921 223.99643 495.5921 222.45006 495.5921 221.19649 494.33854 221.19649 492.79216 221.19649 491.2458 222.45006 489.99223 223.99643 489.99223 225.5428 489.99223 226.79637 491.2458 226.79637 492.79216ZM223.99643 492.79216" fill="#333333" fill-rule="evenodd"/>
<path transform="matrix(1.00005,0,0,-1.00009,-59.504926,505.8741)" stroke-width=".4" stroke-linecap="butt" stroke-linejoin="round" fill="none" stroke="#000000" d="M81.19868 369.59413C81.19868 371.1405 79.94511 372.39408 78.39874 372.39408 76.85237 372.39408 75.5988 371.1405 75.5988 369.59413 75.5988 368.04774 76.85237 366.79417 78.39874 366.79417 79.94511 366.79417 81.19868 368.04774 81.19868 369.59413ZM148.39762 459.1927C148.39762 460.73908 147.14405 461.9926 145.59767 461.9926 144.0513 461.9926 142.79775 460.73908 142.79775 459.1927 142.79775 457.64634 144.0513 456.39277 145.59767 456.39277 147.14405 456.39277 148.39762 457.64634 148.39762 459.1927ZM226.79637 492.79216C226.79637 494.33854 225.5428 495.5921 223.99643 495.5921 222.45006 495.5921 221.19649 494.33854 221.19649 492.79216 221.19649 491.2458 222.45006 489.99223 223.99643 489.99223 225.5428 489.99223 226.79637 491.2458 226.79637 492.79216ZM223.99643 492.79216"/>
<path transform="matrix(1.00005,0,0,-1.00009,-59.504926,505.8741)" stroke-width=".4" stroke-linecap="butt" stroke-linejoin="round" fill="none" stroke="#000000" d="M78.40019 369.60096 118.08722 369.6078"/>
<path transform="matrix(1.00005,0,0,-1.00009,-59.504926,505.8741)" stroke-width=".4" stroke-linecap="butt" stroke-linejoin="round" fill="none" stroke="#000000" d="M78.40019 369.60096 102.21074 401.34773"/>
<path transform="matrix(1.00005,0,0,-1.00009,-59.504926,505.8741)" stroke-width=".4" stroke-linecap="butt" stroke-linejoin="round" fill="none" stroke="#000000" d="M106.74475 369.59886C106.74326 378.5171 102.5408 386.91954 95.40634 392.27049"/>
<use data-text="&#x03b8;" xlink:href="#font_2_1" transform="matrix(9.963098,0,0,-9.963496,36.702886,129.56324)"/>
<path transform="matrix(1.00005,0,0,-1.00009,-59.504926,505.8741)" stroke-width=".4" stroke-linecap="butt" stroke-linejoin="round" fill="none" stroke="#000000" d="M145.60037 459.2012 121.78981 427.45439"/>
<path transform="matrix(1.00005,0,0,-1.00009,-59.504926,505.8741)" stroke-width=".4" stroke-linecap="butt" stroke-linejoin="round" fill="none" stroke="#000000" d="M145.60037 459.2012 182.07524 474.83268"/>
<path transform="matrix(1.00005,0,0,-1.00009,-59.504926,505.8741)" stroke-width=".4" stroke-linecap="butt" stroke-linejoin="round" fill="none" stroke="#000000" d="M128.59008 436.51634C141.11405 427.12318 158.88089 429.66114 168.27404 442.1851 174.35655 450.29496 175.6444 461.0404 171.65126 470.3581"/>
<use data-text="&#x03d5;" xlink:href="#font_2_2" transform="matrix(9.963098,0,0,-9.963496,97.1449,66.96164)"/>
<path transform="matrix(1.00005,0,0,-1.00009,-59.504926,505.8741)" stroke-width=".4" stroke-linecap="butt" stroke-linejoin="round" fill="none" stroke="#000000" d="M224.00057 492.80128 187.5257 477.1698"/>
<path transform="matrix(1.00005,0,0,-1.00009,-59.504926,505.8741)" stroke-width=".4" stroke-linecap="butt" stroke-linejoin="round" fill="none" stroke="#000000" d="M224.00057 492.80128 263.18406 486.50114"/>
<path transform="matrix(1.00005,0,0,-1.00009,-59.504926,505.8741)" stroke-width=".4" stroke-linecap="butt" stroke-linejoin="round" fill="none" stroke="#000000" d="M197.94284 481.62678C204.10939 467.2376 220.77265 460.57203 235.16182 466.73857 244.0903 470.5649 250.4407 478.7022 251.98256 488.29298"/>
<use data-text="&#x03c8;" xlink:href="#font_2_3" transform="matrix(9.963098,0,0,-9.963496,163.85523,38.036989)"/>
</svg>
