<svg xmlns="http://www.w3.org/2000/svg" xmlns:xlink="http://www.w3.org/1999/xlink" xmlns:inkscape="http://www.inkscape.org/namespaces/inkscape" version="1.1" width="175" height="242" viewBox="0 0 175 242">
<defs>
<path id="font_1_1" d="M.33399964 .30233766C.33999635 .32835389 .36299134 .42037965 .43299867 .42037965 .43798829 .42037965 .46199037 .42037965 .48298646 .40734864 .45498658 .402359 .43499757 .37734986 .43499757 .35334779 .43499757 .33735658 .44599916 .31835938 .47299195 .31835938 .49499513 .31835938 .5269928 .3363495 .5269928 .37635804 .5269928 .42837525 .46798707 .4423828 .43399049 .4423828 .37599183 .4423828 .34098817 .38935853 .32899476 .36634828 .3039856 .43237306 .25 .4423828 .22099304 .4423828 .116989139 .4423828 .05999756 .3133545 .05999756 .28834535 .05999756 .27833558 .069992069 .27833558 .07199097 .27833558 .07998657 .27833558 .08299255 .28033448 .084991458 .28933717 .11898804 .39535523 .18499756 .42037965 .21899414 .42037965 .23799134 .42037965 .272995 .4113617 .272995 .35334779 .272995 .32235719 .2559967 .25532533 .21899414 .11528015 .20298767 .053268434 .16799927 .011245728 .12399292 .011245728 .117996219 .011245728 .09498596 .011245728 .07398987 .024276734 .09899902 .029266358 .12098694 .05027771 .12098694 .07827759 .12098694 .105270389 .09899902 .11328125 .083999637 .11328125 .053985597 .11328125 .0289917 .08728027 .0289917 .055267335 .0289917 .009246826 .07899475-.0107421879 .12298584-.0107421879 .18899536-.0107421879 .22499085 .059280397 .22799683 .0652771 .23999024 .028274537 .27598573-.0107421879 .33599855-.0107421879 .43899537-.0107421879 .49598695 .118270877 .49598695 .14328003 .49598695 .1532898 .4869995 .1532898 .48399354 .1532898 .47499085 .1532898 .47299195 .14929199 .47099305 .14228821 .43798829 .03527832 .36999513 .011245728 .33799745 .011245728 .29899598 .011245728 .2829895 .043273927 .2829895 .07727051 .2829895 .09927368 .2889862 .121276859 .2999878 .16529846L.33399964 .30233766Z"/>
<path id="font_1_2" d="M.48599244 .38136292C.48999024 .39537049 .48999024 .39736939 .48999024 .40437318 .48999024 .42237855 .47599793 .43138124 .46099855 .43138124 .45098878 .43138124 .43499757 .42536927 .42599488 .41036988 .42399598 .405365 .41600038 .37435914 .4119873 .35635377 .40499879 .33035279 .397995 .30334474 .3919983 .27633668L.34700013 .09628296C.34298707 .08126831 .2999878 .011245728 .23399353 .011245728 .18299866 .011245728 .17199707 .055267335 .17199707 .0922699 .17199707 .1382904 .18899536 .20030213 .22299195 .28833009 .23899842 .3293457 .24299622 .3403473 .24299622 .36035157 .24299622 .405365 .21099854 .4423828 .16099549 .4423828 .06599426 .4423828 .0289917 .29733277 .0289917 .28833009 .0289917 .27833558 .038986207 .27833558 .040985109 .27833558 .050994874 .27833558 .051986696 .28033448 .056991579 .29634095 .083999637 .3903656 .12399292 .42037965 .1579895 .42037965 .1659851 .42037965 .18299866 .42037965 .18299866 .3883667 .18299866 .36335755 .17298889 .3373413 .1659851 .31834413 .12599182 .21231079 .10798645 .1552887 .10798645 .10827637 .10798645 .019256592 .17098999-.0107421879 .22999573-.0107421879 .2689972-.0107421879 .30299378 .0062561037 .33099366 .03425598 .31799317-.017745972 .30599977-.06674194 .2659912-.11973572 .23999024-.15385437 .20199585-.18309021 .1559906-.18309021 .14199829-.18309021 .09700012-.18005371 .07998657-.14074707 .09599304-.14074707 .10899353-.14074707 .12298584-.1287384 .1329956-.11973572 .14299011-.10673523 .14299011-.08773804 .14299011-.056747438 .115997318-.052734376 .10598755-.052734376 .08299255-.052734376 .049987794-.068740848 .049987794-.11773682 .049987794-.16796875 .09399414-.20507813 .1559906-.20507813 .25898744-.20507813 .3619995-.11373901 .3899994-.00074768069L.48599244 .38136292Z"/>
<path id="font_1_3" d="M.1329956 .08345032C.18699646 .14138794 .21598816 .16636658 .2519989 .19732666 .2519989 .19833374 .31399537 .25128175 .34999085 .2872467 .44499208 .3803711 .46699525 .42837525 .46699525 .43237306 .46699525 .4423828 .45799256 .4423828 .45599366 .4423828 .44898988 .4423828 .44599916 .44036866 .44099427 .43138124 .41099549 .38337709 .3899994 .3671875 .3659973 .3671875 .34199525 .3671875 .32998658 .38237 .31498719 .3993683 .29599 .42237855 .2789917 .4423828 .24598694 .4423828 .17098999 .4423828 .125 .34918214 .125 .3282013 .125 .3231964 .12799073 .31721498 .13699341 .31721498 .1459961 .31721498 .147995 .3222046 .1499939 .3282013 .16899109 .37434388 .22698975 .37538148 .23498535 .37538148 .2559967 .37538148 .2749939 .36820985 .2979889 .36018373 .33799745 .34518434 .34899903 .34518434 .375 .34518434 .33898927 .30223084 .25498963 .2303009 .23599243 .21430969L.1459961 .13040161C.07798767 .06341553 .042999269 .0062561037 .042999269-.00074768069 .042999269-.0107421879 .052993776-.0107421879 .054992677-.0107421879 .06298828-.0107421879 .06498718-.008743286 .070999149 .002243042 .09399414 .037246705 .12399292 .064453128 .1559906 .064453128 .1789856 .064453128 .18899536 .055252077 .21398926 .026245118 .23098755 .0052490236 .24899292-.0107421879 .27799989-.0107421879 .3769989-.0107421879 .43499757 .1164093 .43499757 .14338684 .43499757 .14837647 .43099977 .15338135 .4229889 .15338135 .4139862 .15338135 .4119873 .14738465 .40899659 .14039612 .38598634 .07543945 .32199098 .056243898 .2889862 .056243898 .2689972 .056243898 .25099183 .06239319 .22999573 .06944275 .19599915 .08244324 .18099976 .08644104 .1599884 .08644104 .1579895 .08644104 .14199829 .08644104 .1329956 .08345032Z"/>
</defs>
<path transform="matrix(1.00003,0,0,-1,86.030048,129.258)" stroke-width=".39851" stroke-linecap="butt" stroke-dasharray=".39851,.99628" stroke-miterlimit="10" stroke-linejoin="miter" fill="none" stroke="#000000" d="M0 0-17.00793-10.62991"/>
<path transform="matrix(1.00003,0,0,-1,86.030048,129.258)" stroke-width=".39851" stroke-linecap="butt" stroke-dasharray=".39851,.99628" stroke-miterlimit="10" stroke-linejoin="miter" fill="none" stroke="#000000" d="M0 0H21.25984"/>
<path transform="matrix(1.00003,0,0,-1,86.030048,129.258)" stroke-width=".39851" stroke-linecap="butt" stroke-dasharray=".39851,.99628" stroke-miterlimit="10" stroke-linejoin="miter" fill="none" stroke="#000000" d="M0 0V21.25984"/>
<path transform="matrix(1.00003,0,0,-1,86.030048,129.258)" d="M10.63057-111.613-85.03867-15.94379-8.50446 127.55812 87.16478 31.88889ZM-8.50446 127.55812" fill="#d0acd5" fill-opacity=".7"/>
<path transform="matrix(1.00003,0,0,-1,86.030048,129.258)" stroke-width=".19926" stroke-linecap="butt" stroke-miterlimit="10" stroke-linejoin="miter" fill="none" stroke="#d0acd5" d="M.00066-100.98311 76.53487 42.5188M-21.25919-79.72328 55.27504 63.77863M-42.51901-58.46346 34.01521 85.03845M-63.77884-37.20361 12.75539 106.2983M-85.0312-15.95125-8.497 127.55066M19.13437-95.66837-76.53487 .00087M36.14197-63.77905-59.52727 31.89018M53.14957-31.88974-42.51967 63.7795M70.15718-.00043-25.51207 95.66881M87.1588 31.87769-8.51044 127.54692M-8.50446 127.55812"/>
<path transform="matrix(1.00003,0,0,-1,86.030048,129.258)" stroke-width=".39851" stroke-linecap="butt" stroke-miterlimit="10" stroke-linejoin="miter" fill="none" stroke="#000000" d="M-17.00793-10.62991-50.68588-31.67854"/>
<path transform="matrix(-.8480154,.52998,.5299959,.84799,35.173688,161.04212)" stroke-width=".39851" stroke-linecap="round" stroke-linejoin="round" fill="none" stroke="#000000" d="M-2.07222 2.39102C-1.69363 .95639-.85 .27896 0 0-.85-.27896-1.69363-.95639-2.07222-2.39102"/>
<use data-text="x" xlink:href="#font_1_1" transform="matrix(9.962899,0,0,-9.9626,25.79123,168.957)"/>
<path transform="matrix(1.00003,0,0,-1,86.030048,129.258)" stroke-width=".39851" stroke-linecap="butt" stroke-miterlimit="10" stroke-linejoin="miter" fill="none" stroke="#000000" d="M21.25984 0H63.381"/>
<path transform="matrix(1.00003,0,0,-1,149.61222,129.258)" stroke-width=".39851" stroke-linecap="round" stroke-linejoin="round" fill="none" stroke="#000000" d="M-2.07222 2.39102C-1.69363 .95639-.85 .27896 0 0-.85-.27896-1.69363-.95639-2.07222-2.39102"/>
<use data-text="y" xlink:href="#font_1_2" transform="matrix(9.962899,0,0,-9.9626,153.33107,130.43399)"/>
<path transform="matrix(1.00003,0,0,-1,86.030048,129.258)" stroke-width=".39851" stroke-linecap="butt" stroke-miterlimit="10" stroke-linejoin="miter" fill="none" stroke="#000000" d="M0 21.25984V63.381"/>
<path transform="matrix(0,-1,-1.00003,-0,86.030048,65.67775)" stroke-width=".39851" stroke-linecap="round" stroke-linejoin="round" fill="none" stroke="#000000" d="M-2.07222 2.39102C-1.69363 .95639-.85 .27896 0 0-.85-.27896-1.69363-.95639-2.07222-2.39102"/>
<use data-text="z" xlink:href="#font_1_3" transform="matrix(9.962899,0,0,-9.9626,83.493968,61.958993)"/>
</svg>
